<?xml version="1.0" standalone="no"?>
<!DOCTYPE svg PUBLIC "-//W3C//DTD SVG 20010904//EN"
 "http://www.w3.org/TR/2001/REC-SVG-20010904/DTD/svg10.dtd">
<svg version="1.0" xmlns="http://www.w3.org/2000/svg"
 width="700.000000pt" height="700.000000pt" viewBox="0 0 700.000000 700.000000"
 preserveAspectRatio="xMidYMid meet">
<metadata>
Created by potrace 1.11, written by Peter Selinger 2001-2013
</metadata>
<g transform="translate(0.000000,700.000000) scale(0.100000,-0.100000)"
fill="#000000" stroke="none">
<path d="M3525 6992 c-76 -7 -217 -36 -284 -58 -351 -117 -759 -470 -1144
-989 -79 -107 -278 -401 -334 -495 -213 -355 -485 -870 -642 -1220 -46 -102
-94 -207 -106 -235 -291 -643 -873 -2136 -910 -2335 0 -3 -6 -21 -12 -40 -15
-45 -50 -230 -60 -312 -16 -146 -6 -376 21 -473 60 -216 119 -324 247 -460
177 -186 455 -311 779 -350 30 -4 66 -9 80 -11 40 -5 322 -5 357 0 74 11 150
27 183 37 19 5 44 12 54 14 27 6 181 82 221 109 183 125 338 298 577 646 28
41 54 77 57 80 3 3 33 36 66 74 227 263 507 446 800 523 139 37 176 41 319 38
118 -2 156 -7 231 -29 301 -89 535 -293 768 -669 37 -60 67 -111 67 -113 0 -3
26 -44 59 -92 216 -320 420 -508 622 -572 125 -40 226 -53 429 -54 231 -1 308
8 452 54 171 55 352 214 457 404 29 51 69 173 76 227 3 24 9 75 13 113 10 76
8 345 -2 422 -4 27 -9 69 -11 94 -13 110 -53 308 -87 425 -66 224 -242 635
-387 901 -37 68 -149 244 -161 254 -4 3 -21 28 -40 55 -50 75 -245 265 -327
318 -39 26 -95 58 -125 71 -48 21 -218 65 -308 80 -156 25 -381 26 -495 1 -11
-3 -31 -7 -45 -9 -140 -27 -319 -101 -685 -284 -555 -278 -701 -331 -925 -337
-283 -7 -462 74 -563 255 -26 47 -62 158 -71 220 -7 43 -8 255 -2 290 2 14 7
49 10 79 4 29 8 56 10 60 3 4 7 27 11 51 3 25 22 102 41 171 151 549 446 1029
728 1182 168 92 347 55 514 -106 116 -112 220 -267 377 -562 126 -239 199
-344 309 -448 136 -128 293 -178 541 -172 128 3 147 5 235 26 51 12 62 17 141
54 111 52 222 161 270 265 11 25 24 52 28 60 15 28 40 125 48 181 12 95 4 363
-12 389 -2 4 -7 22 -10 41 -41 233 -181 578 -344 848 -28 46 -51 86 -51 88 0
8 -153 230 -231 333 -308 411 -663 689 -1029 805 -99 32 -217 61 -310 76 -67
11 -407 19 -485 11z"/>
</g>
</svg>
